<svg xmlns="http://www.w3.org/2000/svg" width="568.587" height="478.471" viewBox="0 0 568.587 478.471">
  <g id="Group_10" data-name="Group 10" transform="translate(-92.43 -233)">
    <g id="Group_9" data-name="Group 9" transform="translate(-463 186)">
      <g id="Group_7" data-name="Group 7" transform="translate(466.891 102)">
        <path id="Path_38" data-name="Path 38" d="M423.647,387.5a12.835,12.835,0,0,0-.262,18.061l81.137,83.976a12.807,12.807,0,0,0,18.246.176L770.354,243.2a12.808,12.808,0,0,0-2.047-19.806l-97.356-63.411a12.732,12.732,0,0,0-15.937,1.569Z" transform="translate(-172.07 -154.407)" fill="#3f3d56"/>
        <path id="Path_39" data-name="Path 39" d="M771.508,276.849a12.892,12.892,0,0,1-1.7,2.091l-247,251.17a12.807,12.807,0,0,1-18.246-.176l-82.883-87.469a12.757,12.757,0,0,1-1.515-1.91c-3.178,4.89-1.535,10.356,2.679,14.717l81.137,83.976a12.807,12.807,0,0,0,18.246.176L769.811,292.911a12.811,12.811,0,0,0,1.7-16.062Z" transform="translate(-171.527 -204.119)" fill="#6c63ff"/>
        <path id="Path_40" data-name="Path 40" d="M758.375,239.315,748.3,232.891a9.6,9.6,0,0,1-13.816,12.6l-65.2-44.824a9.594,9.594,0,0,1,2.536-17.057l-5.191-3.31a3.493,3.493,0,0,0-4.362.49L442.937,396.338a3.493,3.493,0,0,0,.088,5l79.655,77.616a3.493,3.493,0,0,0,4.862-.068l231.42-234.149a3.493,3.493,0,0,0-.588-5.419Z" transform="translate(-181.317 -163.547)" fill="#fff"/>
        <path id="Path_41" data-name="Path 41" d="M379.147,212.227l67.284,63.439L606.47,117.549,525.249,64.683Z" transform="translate(-55.232 -27.029)" fill="#e6e6e6"/>
        <path id="Path_42" data-name="Path 42" d="M930.005,361.558a2.385,2.385,0,0,0,3.293,0l14-14a2.332,2.332,0,0,0,0-3.293,2.385,2.385,0,0,0-3.293,0l-14,14A2.332,2.332,0,0,0,930.005,361.558Z" transform="translate(-384.987 -232.017)" fill="#3f3d56"/>
        <path id="Path_43" data-name="Path 43" d="M889.505,402.042a2.332,2.332,0,0,0,3.293,0l14-14a2.329,2.329,0,0,0-3.293-3.293l-14,14A2.332,2.332,0,0,0,889.505,402.042Z" transform="translate(-368.063 -248.924)" fill="#3f3d56"/>
        <circle id="Ellipse_27" data-name="Ellipse 27" cx="15.717" cy="15.717" r="15.717" transform="translate(309.751 223.934)" fill="#6c63ff"/>
        <rect id="Rectangle_1" data-name="Rectangle 1" width="166.145" height="32.803" transform="translate(274.004 103.835)" fill="#e6e6e6"/>
        <rect id="Rectangle_2" data-name="Rectangle 2" width="166.145" height="32.803" transform="translate(274.004 52.003)" fill="#e6e6e6"/>
        <rect id="Rectangle_3" data-name="Rectangle 3" width="166.145" height="32.803" transform="translate(274.004)" fill="#e6e6e6"/>
        <path id="Path_45" data-name="Path 45" d="M471.018,183.713H630.079V157.994H471.018Z" transform="translate(-193.473 -154.452)" fill="#fff"/>
        <path id="Path_46" data-name="Path 46" d="M471.018,273.242H630.079V247.523H471.018Z" transform="translate(-193.473 -191.864)" fill="#fff"/>
        <path id="Path_47" data-name="Path 47" d="M471.018,362.085H630.079V336.366H471.018Z" transform="translate(-193.473 -228.989)" fill="#fff"/>
        <circle id="Ellipse_28" data-name="Ellipse 28" cx="9.798" cy="9.798" r="9.798" transform="translate(281.671 6.39)" fill="#6c63ff"/>
        <rect id="Rectangle_4" data-name="Rectangle 4" width="96.705" height="2.13" transform="translate(314.9 12.354)" fill="#6c63ff"/>
        <rect id="Rectangle_5" data-name="Rectangle 5" width="96.705" height="2.13" transform="translate(314.9 17.892)" fill="#6c63ff"/>
        <circle id="Ellipse_29" data-name="Ellipse 29" cx="9.798" cy="9.798" r="9.798" transform="translate(281.671 58.819)" fill="#ccc"/>
        <rect id="Rectangle_6" data-name="Rectangle 6" width="96.705" height="2.13" transform="translate(314.9 64.783)" fill="#ccc"/>
        <rect id="Rectangle_7" data-name="Rectangle 7" width="96.705" height="2.13" transform="translate(314.9 70.321)" fill="#ccc"/>
        <circle id="Ellipse_30" data-name="Ellipse 30" cx="9.798" cy="9.798" r="9.798" transform="translate(281.671 110.651)" fill="#ccc"/>
        <rect id="Rectangle_8" data-name="Rectangle 8" width="96.705" height="2.13" transform="translate(314.9 116.616)" fill="#ccc"/>
        <rect id="Rectangle_9" data-name="Rectangle 9" width="96.705" height="2.13" transform="translate(314.9 122.153)" fill="#ccc"/>
      </g>
      <g id="Group_8" data-name="Group 8" transform="translate(342.436 -20.002)">
        <path id="Path_48" data-name="Path 48" d="M515.974,29.852c-26.672-1.291-53.8-1.075-79.561,5.288S386.162,54.6,371.5,74.679c-8.392,11.5-13.4,24.961-23.175,35.536-16.955,18.337-44.667,24.636-70.242,30.959-60.059,14.783-120.453,36.144-164.018,76.161-6.254,5.737-12.35,12.281-13.765,20.213-2.172,12.2,7.392,23.607,18,31.414s23.164,14,31.016,24.125c10.013,12.912,10.576,29.975,7.733,45.486s-8.694,30.6-10.234,46.282c-.381,3.866-.472,7.9,1.205,11.474,2.223,4.742,7.164,7.96,12.008,10.667A195.59,195.59,0,0,0,215,427.731c33.188,7.113,67.8,5.777,101.775,8.7s69.366,11.1,93.247,33.012c14.647,13.435,27.86,33.034,48.744,32.369,11.7-.37,22.038-7.522,33.711-8.318,13.14-.9,25.017,6.254,37.407,10.331,17.6,5.8,37.975,5.237,54.475-2.758s28.48-23.653,29.447-40.483c.944-16.489-7.994-31.914-13.157-47.76-16.932-51.917,6.885-106.779,30.567-156.518S679.338,152.113,663.583,99.9C645.291,39.33,574.441,32.684,515.974,29.852Z" transform="translate(113 37.78)" fill="#6c63ff" opacity="0.1"/>
      </g>
    </g>
  </g>
</svg>
