<svg xmlns="http://www.w3.org/2000/svg" width="673.366" height="450.662" viewBox="0 0 673.366 450.662">
  <g id="Group_6" data-name="Group 6" transform="translate(-253 -238.906)">
    <g id="Group_1" data-name="Group 1" transform="translate(469 613)">
      <path id="Path_2" data-name="Path 2" d="M309.6,413.119H297.716a2.435,2.435,0,0,1-2.432-2.432V398.8a2.435,2.435,0,0,1,2.432-2.432H309.6a2.434,2.434,0,0,1,2.432,2.432v11.889A2.435,2.435,0,0,1,309.6,413.119Z" transform="translate(-384.732 -485.723)" fill="#6c63ff"/>
      <path id="Path_3" data-name="Path 3" d="M309.6,470.119H297.716a2.435,2.435,0,0,1-2.432-2.432V455.8a2.435,2.435,0,0,1,2.432-2.432H309.6a2.435,2.435,0,0,1,2.432,2.432v11.889A2.435,2.435,0,0,1,309.6,470.119Z" transform="translate(-384.732 -511.92)" fill="#3f3d56"/>
      <path id="Path_4" data-name="Path 4" d="M309.6,527.119H297.716a2.435,2.435,0,0,1-2.432-2.432V512.8a2.435,2.435,0,0,1,2.432-2.432H309.6a2.435,2.435,0,0,1,2.432,2.432v11.889A2.434,2.434,0,0,1,309.6,527.119Z" transform="translate(-384.732 -538.117)" fill="#ccc"/>
      <path id="Path_5" data-name="Path 5" d="M415,412.23H357.716a2.432,2.432,0,0,1,0-4.864H415a2.432,2.432,0,0,1,0,4.864Z" transform="translate(-412.308 -490.779)" fill="#ccc"/>
      <path id="Path_6" data-name="Path 6" d="M415,469.23H357.716a2.432,2.432,0,1,1,0-4.864H415a2.432,2.432,0,0,1,0,4.864Z" transform="translate(-412.308 -516.975)" fill="#ccc"/>
      <path id="Path_7" data-name="Path 7" d="M415,526.23H357.716a2.432,2.432,0,0,1,0-4.864H415a2.432,2.432,0,0,1,0,4.864Z" transform="translate(-412.308 -543.172)" fill="#ccc"/>
      <path id="Path_15" data-name="Path 15" d="M773.984,406.523c.086-1.431.134-2.871.134-4.323a71.334,71.334,0,0,0-71.334-71.334v75.657Z" transform="translate(-572.016 -455.62)" fill="#6c63ff"/>
      <path id="Path_16" data-name="Path 16" d="M632.115,418.523V342.866a71.334,71.334,0,1,0,71.2,75.657Z" transform="translate(-506.751 -461.135)" fill="#3f3d56"/>
    </g>
    <g id="Group_5" data-name="Group 5" transform="translate(252.997 232.001)">
      <path id="Path_17" data-name="Path 17" d="M698.546,487.455c-14.906,12.365-36.117,17.483-56.63,20.715l-3.453.526a648.274,648.274,0,0,1-64.826,5.932c-11.631.563-23.262.961-34.892,1.316l-9.115.269q-17.752.526-35.572,1.035-17.446.5-34.892.93-22.343.545-44.687.906-17.446.275-34.892.38-22.35.129-44.687-.086-17.458-.178-34.892-.612-22.356-.575-44.687-1.683-15.157-.741-30.3-1.781l-4.6-.324c-43.322-3.122-87.421-8.723-125.331-26.426l-1.022-.484c-.508-.239-1.016-.478-1.524-.728a137.184,137.184,0,0,1-19.932-11.686C61.41,467.659,52.155,457.9,47.263,446.325c-7.664-18.156-3.612-38.565,5.142-56.318s21.9-33.778,33.264-50.5c3.33-4.9,6.489-9.978,9.427-15.187,18.364-32.67,27.473-70.477,8.221-101.959A139.923,139.923,0,0,0,95.1,210.734c-4.7-6.121-9.47-12.243-12.7-19.019-7.523-15.769-5.907-33.5-3.165-50.349,3.673-22.4,10.407-46.523,31.452-60.517,21.835-14.532,52.828-13.8,79.928-8.57C232.751,80.352,271.64,97.254,310.9,112.5s80.381,29.181,123.544,30.681a197.166,197.166,0,0,0,27.779-1.01h0a176.181,176.181,0,0,0,36.19-7.621c16.987-5.6,32.444-14.012,43.9-25.71,24.578-25.006,70.764-26.9,104.065-11.8,31.777,14.41,52.326,44.907,50.808,75.368-1.726,33.907-27.118,61.784-50.386,90.378-2.822,3.465-5.607,6.942-8.319,10.443q-2.271,2.932-4.456,5.877h0c-2.553,3.465-5.02,6.948-7.346,10.474-11.888,18.077-20.293,39.79-12.108,59.3,4.591,10.927,13.351,19.264,23.911,26.543,23.66,16.3,56.318,27.271,71.009,50.092C722.151,445.187,717.462,471.735,698.546,487.455Z" transform="translate(-43.21 -61.946)" fill="#6c63ff" opacity="0.1"/>
      <path id="Path_37" data-name="Path 37" d="M318.5,270.606l79.579-88.761,79.579,44.687L557.238,89.41l79.579,65.5" transform="translate(-123.53 -34.544)" fill="none" stroke="#3f3d56" stroke-linecap="round" stroke-miterlimit="10" stroke-width="7"/>
      <circle id="Ellipse_19" data-name="Ellipse 19" cx="17.14" cy="17.14" r="17.14" transform="translate(177.524 218.921)" fill="#6c63ff"/>
      <circle id="Ellipse_20" data-name="Ellipse 20" cx="17.14" cy="17.14" r="17.14" transform="translate(257.103 130.16)" fill="#6c63ff"/>
      <circle id="Ellipse_21" data-name="Ellipse 21" cx="17.14" cy="17.14" r="17.14" transform="translate(336.683 174.847)" fill="#6c63ff"/>
      <circle id="Ellipse_22" data-name="Ellipse 22" cx="17.14" cy="17.14" r="17.14" transform="translate(416.262 37.726)" fill="#6c63ff"/>
      <circle id="Ellipse_26" data-name="Ellipse 26" cx="17.14" cy="17.14" r="17.14" transform="translate(509.683 113.02)" fill="#6c63ff"/>
    </g>
  </g>
</svg>
