<svg xmlns="http://www.w3.org/2000/svg" width="485.464" height="320.687" viewBox="0 0 485.464 320.687">
  <g id="Group_15" data-name="Group 15" transform="translate(-69.687 -143.089)">
    <g id="Group_11" data-name="Group 11" transform="translate(643.017 -387)">
      <path id="Path_95" data-name="Path 95" d="M553.514,348.442c-16.5,20.955-10.082,51.574.393,76.091,3.5,8.208,7.475,16.9,5.995,25.7-1.811,10.766-11.417,18.639-21.5,22.814a63.977,63.977,0,0,1-57.277-4.718c-14.6-9.082-25.061-23.857-39.91-32.522-24.852-14.509-56.491-9.028-83.488.971-19.1,7.072-39.968,16.266-58.942,8.878-13.348-5.2-22.576-17.858-27.6-31.274-2.427-6.475-4.189-13.489-8.825-18.625a32.883,32.883,0,0,0-10.038-7.043c-33.643-16.683-76.135-7.766-108.812-26.25-22.071-12.494-36.2-36.065-42.453-60.641s-5.534-50.365-3.946-75.674c1.131-17.989,3.155-37.191,14.649-51.074,12.135-14.688,33.007-20.149,51.884-17.358s35.953,12.742,51,24.459c18.795,14.644,36.23,32.881,59.306,38.832,15.737,4.024,32.24,1.811,48.457,1.044,27.1-1.281,54.209,1.568,81.154,4.679,25.8,2.98,51.782,6.267,76.363,14.659,17.392,5.941,31.337,16.722,47.758,24.27,10.7,4.907,22.377,6.267,32.522,12.518,12.484,7.7,23.93,21.1,20.731,36.779C577.881,329.846,562.261,337.321,553.514,348.442Z" transform="translate(-669.333 373.078)" fill="#6c63ff" opacity="0.1"/>
    </g>
    <path id="Path_116" data-name="Path 116" d="M818.961,820a.428.428,0,0,1,.428.428Z" transform="translate(-358.101 -474.473)" fill="#3f3d56"/>
    <g id="Group_14" data-name="Group 14" transform="translate(95 103)">
      <path id="Path_101" data-name="Path 101" d="M235.778,164.038H338.746A21.889,21.889,0,0,1,360.1,181.113l52.027,230.77a17.691,17.691,0,0,1-16.387,21.56l-105.852,5.216a23.372,23.372,0,0,1-24.148-19.183L236.226,256.318l-2.2.627-5.647-30.924,2.26-.565-8.238-45.543a13.477,13.477,0,0,1,13.373-15.875Z" transform="translate(-110.225 -99.219)" fill="#3f3d56"/>
      <path id="Path_102" data-name="Path 102" d="M338.775,175.664h12.019a15.127,15.127,0,0,1,14.779,11.9l49.939,228.888a9.373,9.373,0,0,1-8.545,11.351L301.459,434.72a12.139,12.139,0,0,1-12.741-9.961L246.1,188.181a10.632,10.632,0,0,1,10.464-12.517h11.4a5.018,5.018,0,0,1,4.845,3.713h0a4.43,4.43,0,0,0,4.278,3.278h54.131a7.572,7.572,0,0,0,7.55-6.992Z" transform="translate(-123.809 -105.87)" fill="#fff"/>
      <path id="Path_103" data-name="Path 103" d="M104,188.606H218.462l12.194,54.944L114.7,245.69Z" transform="translate(26.505 -79.895)" fill="#6c63ff"/>
      <rect id="Rectangle_12" data-name="Rectangle 12" width="7.517" height="3.758" transform="translate(256.522 272.51)" fill="#fff"/>
      <path id="Path_65" data-name="Path 65" d="M394.072,596.668H379.616a1.484,1.484,0,0,0-1.467,1.71l2.185,14.2h12.544l2.653-14.151a1.484,1.484,0,0,0-1.459-1.758Z" transform="translate(-83.481 -334.34)" fill="#fff"/>
      <path id="Path_71" data-name="Path 71" d="M908.684,667.292,884.53,650.209c8.146-7.935,15.555-19.235,22.641-32.011l24.153,17.083C921.673,646.243,913.5,657,908.684,667.292Z" transform="translate(-590.469 -364.755)" fill="#6c63ff"/>
      <ellipse id="Ellipse_47" data-name="Ellipse 47" cx="7.129" cy="7.129" rx="7.129" ry="7.129" transform="translate(311.092 270.092)" fill="#fff"/>
      <path id="Path_75" data-name="Path 75" d="M850.323,641.218H845.36a.658.658,0,0,0-.658.658v2.178a.658.658,0,0,0,.658.658h.822v3.264H849.5v-3.264h.822a.658.658,0,0,0,.658-.658v-2.179a.658.658,0,0,0-.658-.658Z" transform="translate(-564.72 -379.637)" fill="#e6e6e6"/>
      <path id="Path_76" data-name="Path 76" d="M846.939,667.246a25.515,25.515,0,0,1-4.439-15.128.538.538,0,0,0-.42-.537v-.941h-5.241v.928h-.072a.538.538,0,0,0-.537.539c0,.013,0,.026,0,.039a23.286,23.286,0,0,1-4.183,15.486,1.482,1.482,0,0,0-.268.9l.573,17.729a1.535,1.535,0,0,0,1.522,1.481h11.856a1.535,1.535,0,0,0,1.523-1.507l.221-17.213A3.107,3.107,0,0,0,846.939,667.246Z" transform="translate(-556.365 -385.728)" fill="#6c63ff"/>
      <path id="Path_77" data-name="Path 77" d="M852.484,643.226a1.42,1.42,0,0,1-2.839,0" transform="translate(-567.916 -380.935)" opacity="0.2"/>
      <path id="Path_78" data-name="Path 78" d="M848.546,714.273H838.226a1.059,1.059,0,0,0-1.047,1.221l1.559,10.136h8.954l1.894-10.1a1.059,1.059,0,0,0-1.041-1.255Z" transform="translate(-559.849 -426.866)" fill="#fff"/>
      <path id="Path_79" data-name="Path 79" d="M766.442,685.293H736.858c2.068-11.183,1.592-24.686,0-39.208h29.584C764.892,660.607,764.429,674.11,766.442,685.293Z" transform="translate(-495 -382.783)" fill="#6c63ff"/>
      <ellipse id="Ellipse_48" data-name="Ellipse 48" cx="7.129" cy="7.129" rx="7.129" ry="7.129" transform="translate(249.699 274.708)" fill="#fff"/>
      <path id="Path_91" data-name="Path 91" d="M598.406,505.06H504.418l-19.9-94.087H467.529v-4.222h20.408l19.9,94.086h90.566Z" transform="translate(-265.734 -199.961)" fill="#3f3d56"/>
      <ellipse id="Ellipse_52" data-name="Ellipse 52" cx="9.047" cy="9.047" rx="9.047" ry="9.047" transform="translate(243.41 304.194)" fill="#3f3d56"/>
      <ellipse id="Ellipse_53" data-name="Ellipse 53" cx="9.047" cy="9.047" rx="9.047" ry="9.047" transform="translate(310.959 304.194)" fill="#3f3d56"/>
      <path id="Path_92" data-name="Path 92" d="M792.164,612.88H700.719l-16.135-79.735H807.3a4.336,4.336,0,0,1,4.283,5.008l-15.142,71.064a4.314,4.314,0,0,1-4.282,3.662Zm-90.452-1.206h90.452a3.113,3.113,0,0,0,3.09-2.643L810.4,537.966a3.129,3.129,0,0,0-3.091-3.615H686.048Z" transform="translate(-461.206 -309.768)" fill="#3f3d56"/>
      <path id="Path_93" data-name="Path 93" d="M605.189,534.072l-10.566-78.778,1.19-.2,10.566,78.778Z" transform="translate(-347.899 -231.216)" fill="#3f3d56"/>
      <path id="Path_94" data-name="Path 94" d="M788.534,533.47l-1.191-.193L797.6,455.1l1.191.193Z" transform="translate(-472.491 -231.219)" fill="#3f3d56"/>
      <rect id="Rectangle_17" data-name="Rectangle 17" width="1.206" height="78.778" transform="translate(286.844 223.98)" fill="#3f3d56"/>
      <rect id="Rectangle_18" data-name="Rectangle 18" width="1.206" height="116.762" transform="translate(229.537 246.294) rotate(-89.861)" fill="#3f3d56"/>
      <rect id="Rectangle_19" data-name="Rectangle 19" width="102.58" height="1.206" transform="translate(235.487 283.052) rotate(-0.392)" fill="#3f3d56"/>
      <ellipse id="Ellipse_54" data-name="Ellipse 54" cx="6.634" cy="3.619" rx="6.634" ry="3.619" transform="translate(196.97 204.68)" fill="#3f3d56"/>
      <g id="Group_13" data-name="Group 13" transform="translate(-275.316 -427)">
        <g id="Group_12" data-name="Group 12" transform="translate(417.089 469.846)">
          <path id="Path_117" data-name="Path 117" d="M362.322,584.643v17.6h-44.1a8.806,8.806,0,1,1,0-17.6Z" transform="translate(-298.132 -480.969)" fill="#f2f2f2"/>
          <path id="Path_118" data-name="Path 118" d="M357.353,599.514a.677.677,0,0,1-.677.677H311.388a9.274,9.274,0,1,1,0-18.548h45.288a.677.677,0,1,1,0,1.354H311.388a7.92,7.92,0,0,0,0,15.841h45.288A.677.677,0,0,1,357.353,599.514Z" transform="translate(-292.08 -478.375)" fill="#6c63ff"/>
          <path id="Path_119" data-name="Path 119" d="M398.636,612.914H351.249a.135.135,0,0,1,0-.271h47.387a.135.135,0,0,1,0,.271Z" transform="translate(-334.445 -505.178)" fill="#ccc"/>
          <path id="Path_120" data-name="Path 120" d="M398.636,636.914H351.249a.135.135,0,1,1,0-.271h47.387a.135.135,0,1,1,0,.271Z" transform="translate(-334.445 -525.929)" fill="#ccc"/>
          <path id="Path_121" data-name="Path 121" d="M398.636,660.914H351.249a.135.135,0,0,1,0-.271h47.387a.135.135,0,0,1,0,.271Z" transform="translate(-334.445 -546.679)" fill="#ccc"/>
          <path id="Path_122" data-name="Path 122" d="M398.636,684.914H351.249a.135.135,0,0,1,0-.271h47.387a.135.135,0,0,1,0,.271Z" transform="translate(-334.445 -567.43)" fill="#ccc"/>
          <path id="Path_123" data-name="Path 123" d="M641.9,419.226l-11.043,13.705-34.337-27.667a8.806,8.806,0,1,1,11.043-13.705Z" transform="translate(-543.631 -312.239)" fill="#f2f2f2"/>
          <path id="Path_124" data-name="Path 124" d="M625.773,428.434a.677.677,0,0,1-.952.1l-35.265-28.415a9.274,9.274,0,0,1,11.638-14.443l35.265,28.415a.677.677,0,1,1-.849,1.054l-35.265-28.415a7.92,7.92,0,1,0-9.939,12.335l35.265,28.415A.677.677,0,0,1,625.773,428.434Z" transform="translate(-537.617 -307.167)" fill="#ccc"/>
          <path id="Path_125" data-name="Path 125" d="M699.048,441.07l-36.9-29.731a.135.135,0,0,1,.17-.211l36.9,29.731a.135.135,0,0,1-.17.211Z" transform="translate(-603.326 -330.921)" fill="#ccc"/>
          <path id="Path_126" data-name="Path 126" d="M683.99,459.759l-36.9-29.732a.135.135,0,1,1,.17-.211l36.9,29.731a.135.135,0,1,1-.17.211Z" transform="translate(-590.306 -347.078)" fill="#ccc"/>
          <path id="Path_127" data-name="Path 127" d="M668.932,478.447l-36.9-29.731a.135.135,0,1,1,.17-.211l36.9,29.731a.135.135,0,1,1-.17.211Z" transform="translate(-577.287 -363.237)" fill="#ccc"/>
          <path id="Path_128" data-name="Path 128" d="M653.874,497.135l-36.9-29.731a.135.135,0,0,1,.17-.211l36.9,29.731a.135.135,0,0,1-.17.211Z" transform="translate(-564.268 -379.395)" fill="#ccc"/>
          <path id="Path_129" data-name="Path 129" d="M328.6,717.914H228.135a.135.135,0,1,1,0-.271H328.6a.135.135,0,0,1,0,.271Z" transform="translate(-228 -595.962)" fill="#ccc"/>
          <path id="Path_135" data-name="Path 135" d="M634.488,376.475" transform="translate(-579.453 -300.985)" fill="#ffb8b8"/>
        </g>
      </g>
      <rect id="Rectangle_103" data-name="Rectangle 103" width="9.614" height="1.526" transform="translate(126.344 265.532)" fill="#3f3d56"/>
      <path id="Path_209" data-name="Path 209" d="M496.454,512.4l-1.984.459-75.388.04-.678-1.579a15.942,15.942,0,0,1-1.172-8.621c.325-2.181,1.138-4.349,2.986-5.29l3.345-22.283,41.709-.075,16.137,13.015s7.612-.137,11.747,5.011a12.084,12.084,0,0,1,2.528,6.655l.163,2.678Z" transform="translate(-290.982 -246.524)" fill="#6c63ff"/>
      <ellipse id="Ellipse_56" data-name="Ellipse 56" cx="9.309" cy="9.309" rx="9.309" ry="9.309" transform="translate(179.604 256.193)" fill="#3f3d56"/>
      <ellipse id="Ellipse_57" data-name="Ellipse 57" cx="4.9" cy="4.9" rx="4.9" ry="4.9" transform="translate(184.014 260.602)" fill="#ccc"/>
      <ellipse id="Ellipse_58" data-name="Ellipse 58" cx="9.309" cy="9.309" rx="9.309" ry="9.309" transform="translate(133.669 256.217)" fill="#3f3d56"/>
      <ellipse id="Ellipse_59" data-name="Ellipse 59" cx="4.9" cy="4.9" rx="4.9" ry="4.9" transform="translate(138.079 260.627)" fill="#ccc"/>
      <path id="Path_210" data-name="Path 210" d="M392.928,322.087l-22.519.01H367.66l-4.642,0v-.338l0-4.081,0-4.583H366.1l2.749,0,4.87,0h2.749l5.622,0Z" transform="translate(-208.913 -82.067)" fill="#fff"/>
      <path id="Path_211" data-name="Path 211" d="M327.277,322.13l-11.9.007,0-2.335v-4.081l0-2.586h1.743l2.749,0,7.413,0Z" transform="translate(-176.835 -82.094)" fill="#fff"/>
      <rect id="Rectangle_104" data-name="Rectangle 104" width="1.526" height="2.9" transform="translate(154.109 246.749)" fill="#3f3d56"/>
      <rect id="Rectangle_105" data-name="Rectangle 105" width="1.526" height="2.9" transform="matrix(0.001, 1, -1, 0.001, 180.812, 242.614)" fill="#3f3d56"/>
      <path id="Path_212" data-name="Path 212" d="M439.169,331.106h.168a3.189,3.189,0,0,1,3.189,3.19h0a3.19,3.19,0,0,1-3.189,3.19h-.168Z" transform="translate(-260.189 -94.199)" fill="#3f3d56"/>
      <path id="Path_213" data-name="Path 213" d="M646.929,539.562a4.93,4.93,0,0,1-2.691-9.334,12.084,12.084,0,0,1,2.528,6.655Z" transform="translate(-442.064 -283.675)" fill="#3f3d56"/>
      <path id="Path_214" data-name="Path 214" d="M368.855,313.108l-5.83,8.667,0-4.081,3.084-4.583Z" transform="translate(-208.919 -82.081)" fill="#f2f2f2"/>
      <path id="Path_215" data-name="Path 215" d="M319.867,313.138l-4.488,6.67v-4.081l1.739-2.586Z" transform="translate(-176.842 -82.101)" fill="#f2f2f2"/>
      <path id="Path_216" data-name="Path 216" d="M386.046,313.1l-6.058,9.006h-2.749L383.3,313.1Z" transform="translate(-218.492 -82.074)" fill="#f2f2f2"/>
    </g>
  </g>
</svg>
